<?xml version="1.0" encoding="UTF-8" standalone="no"?>
<svg width="30px" height="30px" viewBox="0 0 30 30" version="1.1" xmlns="http://www.w3.org/2000/svg" xmlns:xlink="http://www.w3.org/1999/xlink">
    <!-- Generator: Sketch 39.1 (31720) - http://www.bohemiancoding.com/sketch -->
    <title>Page 1</title>
    <desc>Created with Sketch.</desc>
    <defs>
        <rect id="path-1" x="254" y="507" width="140" height="40" rx="4"></rect>
        <mask id="mask-2" maskContentUnits="userSpaceOnUse" maskUnits="objectBoundingBox" x="0" y="0" width="140" height="40" fill="white">
            <use xlink:href="#path-1"></use>
        </mask>
        <polygon id="path-3" points="29.5338082 14.7276228 29.5338082 0.129282609 0 0.129282609 0 14.7276228 0 29.325963 29.5338082 29.325963"></polygon>
    </defs>
    <g id="订单-web" stroke="none" stroke-width="1" fill="none" fill-rule="evenodd">
        <g id="支付" transform="translate(-260.000000, -512.000000)">
            <use id="Rectangle-7-Copy" stroke="#000000" mask="url(#mask-2)" stroke-width="4" fill="#FFFFFF" xlink:href="#path-1"></use>
            <g id="Page-1" transform="translate(260.000000, 512.000000)">
                <g id="Group-3" transform="translate(0.000000, 0.283802)">
                    <mask id="mask-4" fill="white">
                        <use xlink:href="#path-3"></use>
                    </mask>
                    <g id="Clip-2"></g>
                    <path d="M0,2.60411522 L0,26.63705 C0,26.63705 0.166213222,28.5981804 2.60400715,29.325963 L27.2023419,29.325963 C27.2023419,29.325963 28.7630351,28.7658761 29.5338082,26.9170935 L29.5338082,2.60411522 C29.5338082,2.60411522 29.362299,0.755745652 26.8141036,0.139484783 C26.8141036,0.139484783 3.82575581,0.116354348 2.8806218,0.139484783 C0.976910066,0.277028261 0,2.60411522 0,2.60411522" id="Fill-1" fill="#2795C8" mask="url(#mask-4)"></path>
                </g>
                <path d="M6.90306325,11.0178935 L12.7506725,11.0178935 L12.7506725,9.16787174 L5.96607695,9.16787174 L5.96607695,7.85852391 L12.7506725,7.85852391 L12.7506725,4.60869783 L16.4106225,4.60869783 L16.4106225,7.81350217 L23.865367,7.81350217 L23.865367,9.12243696 L16.4106225,9.12243696 L16.4106225,11.0178935 L22.2578244,11.0178935 C22.2578244,11.0178935 21.6333027,14.6737413 19.7585153,17.0656761 C19.7585153,17.0656761 28.7307702,20.360937 29.5337267,20.4509804 L29.5337267,25.0097413 C29.5337267,25.0097413 19.400831,21.0379152 18.2405975,20.0899804 C18.2405975,20.0899804 15.0275493,24.7391978 9.67083931,25.0097413 C9.67083931,25.0097413 5.11790066,25.4165891 2.30571959,21.4893717 C2.30571959,21.4893717 0.60977439,16.5691978 5.51958261,15.0801761 C5.51958261,15.0801761 10.6974504,13.2735239 16.5894647,16.1631761 C16.5894647,16.1631761 18.5530621,14.0872196 18.7319042,12.2363717 L6.85865825,12.2363717 L6.90306325,11.0178935 Z" id="Fill-4" fill="#FEFEFE"></path>
                <path d="M7.43954902,16.4790304 C7.43954902,16.4790304 3.57753591,17.3782261 3.73397189,20.2707696 C3.73397189,20.2707696 4.00243883,23.3842913 9.80523574,22.7977696 C9.80523574,22.7977696 12.7058194,22.1207913 15.2947533,18.8713783 C15.2947533,18.8713783 12.572197,16.1176174 7.43954902,16.4790304" id="Fill-6" fill="#2795C8"></path>
            </g>
        </g>
    </g>
</svg>